<mxfile host="app.diagrams.net" agent="Mozilla/5.0 (Windows NT 10.0; Win64; x64) AppleWebKit/537.36 (KHTML, like Gecko) Chrome/131.0.0.0 Safari/537.36" version="24.8.6">
  <diagram name="Сторінка-1" id="7PmAzgE0fLkqOtVYYPWQ">
    <mxGraphModel dx="1050" dy="530" grid="1" gridSize="10" guides="1" tooltips="1" connect="1" arrows="1" fold="1" page="1" pageScale="1" pageWidth="827" pageHeight="1169" math="0" shadow="0">
      <root>
        <mxCell id="0" />
        <mxCell id="1" parent="0" />
        <mxCell id="vt6AaOqTfn4zPKaIpQmg-3" value="&lt;font style=&quot;font-size: 14px;&quot;&gt;End&lt;/font&gt;" style="ellipse;whiteSpace=wrap;html=1;" vertex="1" parent="1">
          <mxGeometry x="354" y="490" width="120" height="50" as="geometry" />
        </mxCell>
        <mxCell id="vt6AaOqTfn4zPKaIpQmg-4" style="edgeStyle=orthogonalEdgeStyle;rounded=0;orthogonalLoop=1;jettySize=auto;html=1;exitX=0.5;exitY=1;exitDx=0;exitDy=0;entryX=0.5;entryY=0;entryDx=0;entryDy=0;" edge="1" parent="1" source="vt6AaOqTfn4zPKaIpQmg-5" target="vt6AaOqTfn4zPKaIpQmg-7">
          <mxGeometry relative="1" as="geometry" />
        </mxCell>
        <mxCell id="vt6AaOqTfn4zPKaIpQmg-5" value="&lt;font style=&quot;font-size: 14px;&quot;&gt;Start&lt;/font&gt;" style="ellipse;whiteSpace=wrap;html=1;" vertex="1" parent="1">
          <mxGeometry x="354" y="40" width="120" height="50" as="geometry" />
        </mxCell>
        <mxCell id="vt6AaOqTfn4zPKaIpQmg-13" style="edgeStyle=orthogonalEdgeStyle;rounded=0;orthogonalLoop=1;jettySize=auto;html=1;exitX=0.5;exitY=1;exitDx=0;exitDy=0;entryX=0.5;entryY=0;entryDx=0;entryDy=0;" edge="1" parent="1" source="vt6AaOqTfn4zPKaIpQmg-7" target="vt6AaOqTfn4zPKaIpQmg-12">
          <mxGeometry relative="1" as="geometry" />
        </mxCell>
        <mxCell id="vt6AaOqTfn4zPKaIpQmg-7" value="&lt;font style=&quot;font-size: 14px;&quot;&gt;double h = 0.1, x=0.3&lt;/font&gt;&lt;div&gt;&lt;font style=&quot;font-size: 14px;&quot;&gt;int counter = 0&lt;/font&gt;&lt;/div&gt;" style="rounded=1;whiteSpace=wrap;html=1;" vertex="1" parent="1">
          <mxGeometry x="359" y="130" width="110" height="55" as="geometry" />
        </mxCell>
        <mxCell id="vt6AaOqTfn4zPKaIpQmg-16" style="edgeStyle=orthogonalEdgeStyle;rounded=0;orthogonalLoop=1;jettySize=auto;html=1;exitX=0.5;exitY=1;exitDx=0;exitDy=0;entryX=0.5;entryY=0;entryDx=0;entryDy=0;" edge="1" parent="1" source="vt6AaOqTfn4zPKaIpQmg-12" target="vt6AaOqTfn4zPKaIpQmg-15">
          <mxGeometry relative="1" as="geometry" />
        </mxCell>
        <mxCell id="vt6AaOqTfn4zPKaIpQmg-29" value="Yes" style="edgeLabel;html=1;align=center;verticalAlign=middle;resizable=0;points=[];" vertex="1" connectable="0" parent="vt6AaOqTfn4zPKaIpQmg-16">
          <mxGeometry x="-0.36" y="-1" relative="1" as="geometry">
            <mxPoint as="offset" />
          </mxGeometry>
        </mxCell>
        <mxCell id="vt6AaOqTfn4zPKaIpQmg-27" style="edgeStyle=orthogonalEdgeStyle;rounded=0;orthogonalLoop=1;jettySize=auto;html=1;exitX=0;exitY=0.5;exitDx=0;exitDy=0;entryX=0.5;entryY=0;entryDx=0;entryDy=0;" edge="1" parent="1" source="vt6AaOqTfn4zPKaIpQmg-12" target="vt6AaOqTfn4zPKaIpQmg-3">
          <mxGeometry relative="1" as="geometry">
            <Array as="points">
              <mxPoint x="290" y="270" />
              <mxPoint x="290" y="430" />
              <mxPoint x="414" y="430" />
            </Array>
          </mxGeometry>
        </mxCell>
        <mxCell id="vt6AaOqTfn4zPKaIpQmg-28" value="No" style="edgeLabel;html=1;align=center;verticalAlign=middle;resizable=0;points=[];" vertex="1" connectable="0" parent="vt6AaOqTfn4zPKaIpQmg-27">
          <mxGeometry x="-0.8822" y="1" relative="1" as="geometry">
            <mxPoint as="offset" />
          </mxGeometry>
        </mxCell>
        <mxCell id="vt6AaOqTfn4zPKaIpQmg-12" value="&lt;font style=&quot;font-size: 14px;&quot;&gt;x&amp;lt;5&lt;/font&gt;" style="rhombus;whiteSpace=wrap;html=1;" vertex="1" parent="1">
          <mxGeometry x="374" y="230" width="80" height="80" as="geometry" />
        </mxCell>
        <mxCell id="vt6AaOqTfn4zPKaIpQmg-18" style="edgeStyle=orthogonalEdgeStyle;rounded=0;orthogonalLoop=1;jettySize=auto;html=1;exitX=1;exitY=0.5;exitDx=0;exitDy=0;entryX=0;entryY=0.5;entryDx=0;entryDy=0;" edge="1" parent="1" source="vt6AaOqTfn4zPKaIpQmg-15" target="vt6AaOqTfn4zPKaIpQmg-17">
          <mxGeometry relative="1" as="geometry" />
        </mxCell>
        <mxCell id="vt6AaOqTfn4zPKaIpQmg-15" value="&lt;font style=&quot;font-size: 14px;&quot;&gt;double res = cos(x*x)*exp(-x)&lt;/font&gt;" style="rounded=1;whiteSpace=wrap;html=1;" vertex="1" parent="1">
          <mxGeometry x="354" y="350" width="120" height="60" as="geometry" />
        </mxCell>
        <mxCell id="vt6AaOqTfn4zPKaIpQmg-20" style="edgeStyle=orthogonalEdgeStyle;rounded=0;orthogonalLoop=1;jettySize=auto;html=1;exitX=1;exitY=0.5;exitDx=0;exitDy=0;entryX=0.5;entryY=1;entryDx=0;entryDy=0;" edge="1" parent="1" source="vt6AaOqTfn4zPKaIpQmg-17" target="vt6AaOqTfn4zPKaIpQmg-19">
          <mxGeometry relative="1" as="geometry" />
        </mxCell>
        <mxCell id="vt6AaOqTfn4zPKaIpQmg-25" value="Yes" style="edgeLabel;html=1;align=center;verticalAlign=middle;resizable=0;points=[];" vertex="1" connectable="0" parent="vt6AaOqTfn4zPKaIpQmg-20">
          <mxGeometry x="-0.5886" relative="1" as="geometry">
            <mxPoint as="offset" />
          </mxGeometry>
        </mxCell>
        <mxCell id="vt6AaOqTfn4zPKaIpQmg-23" style="edgeStyle=orthogonalEdgeStyle;rounded=0;orthogonalLoop=1;jettySize=auto;html=1;exitX=0.5;exitY=0;exitDx=0;exitDy=0;entryX=0.5;entryY=1;entryDx=0;entryDy=0;" edge="1" parent="1" source="vt6AaOqTfn4zPKaIpQmg-17" target="vt6AaOqTfn4zPKaIpQmg-21">
          <mxGeometry relative="1" as="geometry" />
        </mxCell>
        <mxCell id="vt6AaOqTfn4zPKaIpQmg-26" value="No" style="edgeLabel;html=1;align=center;verticalAlign=middle;resizable=0;points=[];" vertex="1" connectable="0" parent="vt6AaOqTfn4zPKaIpQmg-23">
          <mxGeometry x="-0.4484" relative="1" as="geometry">
            <mxPoint as="offset" />
          </mxGeometry>
        </mxCell>
        <mxCell id="vt6AaOqTfn4zPKaIpQmg-17" value="&lt;font style=&quot;font-size: 14px;&quot;&gt;res&amp;lt;0&lt;/font&gt;" style="rhombus;whiteSpace=wrap;html=1;" vertex="1" parent="1">
          <mxGeometry x="570" y="340" width="80" height="80" as="geometry" />
        </mxCell>
        <mxCell id="vt6AaOqTfn4zPKaIpQmg-22" style="edgeStyle=orthogonalEdgeStyle;rounded=0;orthogonalLoop=1;jettySize=auto;html=1;exitX=0.5;exitY=0;exitDx=0;exitDy=0;entryX=1;entryY=0.5;entryDx=0;entryDy=0;" edge="1" parent="1" source="vt6AaOqTfn4zPKaIpQmg-19" target="vt6AaOqTfn4zPKaIpQmg-21">
          <mxGeometry relative="1" as="geometry" />
        </mxCell>
        <mxCell id="vt6AaOqTfn4zPKaIpQmg-19" value="&lt;font style=&quot;font-size: 14px;&quot;&gt;counter++&lt;/font&gt;" style="rounded=1;whiteSpace=wrap;html=1;" vertex="1" parent="1">
          <mxGeometry x="690" y="280" width="120" height="60" as="geometry" />
        </mxCell>
        <mxCell id="vt6AaOqTfn4zPKaIpQmg-24" style="edgeStyle=orthogonalEdgeStyle;rounded=0;orthogonalLoop=1;jettySize=auto;html=1;exitX=0;exitY=0.5;exitDx=0;exitDy=0;" edge="1" parent="1" source="vt6AaOqTfn4zPKaIpQmg-21">
          <mxGeometry relative="1" as="geometry">
            <mxPoint x="410" y="215" as="targetPoint" />
          </mxGeometry>
        </mxCell>
        <mxCell id="vt6AaOqTfn4zPKaIpQmg-21" value="&lt;font style=&quot;font-size: 14px;&quot;&gt;x+=h&lt;/font&gt;" style="rounded=1;whiteSpace=wrap;html=1;" vertex="1" parent="1">
          <mxGeometry x="550" y="185" width="120" height="60" as="geometry" />
        </mxCell>
      </root>
    </mxGraphModel>
  </diagram>
</mxfile>
